<svg xmlns="http://www.w3.org/2000/svg" width="19" height="19" viewBox="0 0 19 19">
  <path id="Path_257" data-name="Path 257" d="M9.5,0A9.5,9.5,0,1,0,19,9.5,9.487,9.487,0,0,0,9.5,0ZM8.36,3.188a1.435,1.435,0,0,1,1.034-.422A1.442,1.442,0,0,1,10.83,4.2a1.471,1.471,0,0,1-.422,1.034,1.386,1.386,0,0,1-1.013.422A1.471,1.471,0,0,1,8.36,5.236a1.386,1.386,0,0,1-.422-1.013A1.4,1.4,0,0,1,8.36,3.188Zm3.716,12.6H7.114v-.823h.549a.717.717,0,0,0,.612-.211,1.019,1.019,0,0,0,.19-.7V9.268a.877.877,0,0,0-.274-.7.993.993,0,0,0-.718-.253H7.114v-.8l3.673-.169v7.009a.6.6,0,0,0,.169.443.849.849,0,0,0,.549.148h.549l.021.844Z" fill="#005ea5"/>
</svg>
