<svg xmlns="http://www.w3.org/2000/svg" width="575.37" height="149.835" viewBox="0 0 575.37 149.835">
  <g id="Group_633" data-name="Group 633" transform="translate(-142 -701)" opacity="0.5">
    <path id="Path_88" data-name="Path 88" d="M5.485,130.616c7.439-8.218,16.9-25.5,17-25.678,1.573-2.877,7.439-14.465,7.715-15.036,5.143-12.731,8.969-39.1,11.5-56.519,1.126-7.863,2.04-14.051,2.635-16.12.7-2.365.276-8.75-.765-17.263H41.4c1,8.021,1.488,14.544.85,16.731s-1.509,8.139-2.7,16.376c-2.529,17.342-6.312,43.572-11.349,56.007-.064.118-6.1,12.041-7.651,14.9C17.94,108.781,9.864,122.635,3.828,129.3,0,133.553-.636,140.647.512,149.771H2.7C1.6,141.14,2.085,134.361,5.485,130.616Z" transform="translate(142.002 701.021)" fill="#005e54"/>
    <path id="Path_89" data-name="Path 89" d="M29.612,93.39c4.973-10.11,15.494-65.328,16.812-79.911.34-3.823.531-8.494.659-13.479H46c-.128,4.966-.319,9.617-.659,13.4C44.022,27.944,33.565,82.946,28.635,92.957c-5.08,10.346-17.279,31.886-21.615,36.93-2.55,2.976-4.761,10.7-4.91,19.884H3.258c.191-9.124,2.4-16.672,4.633-19.273C12.248,125.414,24.511,103.776,29.612,93.39Z" transform="translate(144.378 701.021)" fill="#005e54"/>
    <path id="Path_90" data-name="Path 90" d="M14.606,125.729a132.689,132.689,0,0,0,15.048-24.358c7.5-16.1,10.606-33.994,13.326-49.779,1.211-6.956,2.338-13.539,3.783-19.726,1.828-7.9,3.231-17.066,4.57-25.914.319-2.01.616-4,.914-5.951H50.057c-.3,1.872-.574,3.764-.871,5.676-1.339,8.809-2.72,17.933-4.548,25.776C43.17,37.7,42.044,44.3,40.833,51.3c-2.848,16.435-5.8,33.4-13.2,49.287a130.047,130.047,0,0,1-14.856,24.023c-4.995,6.759-8.629,11.647-8.608,17.48,0,2.641.128,5.2.319,7.686H6.678c-.213-2.483-.361-5.025-.361-7.686C6.338,136.863,9.8,132.193,14.606,125.729Z" transform="translate(146.697 701.021)" fill="#005e54"/>
    <path id="Path_91" data-name="Path 91" d="M254.621,84.076c-15.706.6-22.678-.765-36.6-3.464-6.185-1.19-15.983-4.888-26.354-8.8C177.683,66.542,163.252,61.1,153.73,60.059c-10.648-1.148-22.954,6.461-30.01,25.292h1.339c5.653-14.24,15.536-25.611,28.565-24.208,9.373,1.02,24.4,6.695,37.661,11.69,10.414,3.932,20.255,7.63,26.546,8.863,13.985,2.7,21,4.059,36.833,3.464a88.8,88.8,0,0,1,10.861.191h6.78C267.735,84.2,261.975,83.8,254.621,84.076Z" transform="translate(281.234 765.484)" fill="#005e54"/>
    <path id="Path_92" data-name="Path 92" d="M98.423,82.908c6.44-23.294,19.468-40.063,30.308-39,7.418.723,20.68,7.333,34.707,14.3,8.629,4.293,17.555,8.735,25.632,12.03,6.312,2.593,12.816,5.675,19.681,8.927,15.579,7.375,33.219,15.749,51.8,19.4a145.658,145.658,0,0,0,30.18,2.465c8.459,0,14.58,0,19.192,3.188.765.531,1.488,1.063,2.232,1.615h3.613c-1.488-1.148-3.018-2.274-4.633-3.379-5.165-3.571-11.541-3.571-20.4-3.571-7.758-.021-17.407.021-29.755-2.4-18.321-3.613-35.069-11.541-51.306-19.235-6.907-3.273-13.432-6.355-19.787-8.969C181.886,64.992,173,60.571,164.395,56.3c-14.219-7.077-27.651-13.751-35.451-14.516-13.666-1.339-26.758,19.4-32.6,40.573-2.232,8.034-1.233,15.961,1.467,23.507h2.232C97.276,98.487,96.234,90.772,98.423,82.908Z" transform="translate(249.039 744.973)" fill="#005e54"/>
    <path id="Path_93" data-name="Path 93" d="M82.449,63.99c-19.022,14.644-12.943,34.665-7.1,54.048.106.34.213.68.3,1.02h1.126c-.128-.446-.255-.893-.4-1.339C70.611,98.7,64.66,79.038,83.087,64.861c8.1-6.227,13.836-11.094,18.427-15.026,8.055-6.844,12.922-10.988,21.743-14.984,12.71-5.76,14.963-4.548,25.823,1.233.85.468,1.764.935,2.72,1.445,7.141,3.783,17.428,10.648,27.375,17.3,8.48,5.653,17.237,11.5,23.762,15.218,13.709,7.821,68.756,32.858,80.551,34.92,12.115,2.147,38.3,5.207,45.313,4.74,3.847-.276,12.88,3,21.785,9.352H352.5c-9.33-7.014-19.128-10.776-23.762-10.436-6.929.489-32.986-2.593-45.058-4.718-11.711-2.04-66.524-26.992-80.211-34.792-6.5-3.719-15.239-9.543-23.677-15.2-9.968-6.674-20.3-13.539-27.481-17.343-.956-.51-1.87-.978-2.72-1.445-10.988-5.866-13.581-7.247-26.78-1.275-8.948,4.059-13.857,8.246-22,15.154C96.243,52.917,90.525,57.763,82.449,63.99Z" transform="translate(220.296 731.777)" fill="#005e54"/>
    <path id="Path_94" data-name="Path 94" d="M263.176,32.7c17.726,0,34.495-2.125,43.8-6.355,14.282-6.482,18.257-11.137,27.056-26.355h-1.254c-8.438,14.516-12.433,19.107-26.248,25.356-18.321,8.331-65.7,8.4-92.156.128C192.933,18.8,161.371,7.9,143.348.011H140.67c19.043,8.608,55.685,21,73.389,26.525C227.279,30.659,245.706,32.7,263.176,32.7Z" transform="translate(300.309 701.01)" fill="#005e54"/>
    <path id="Path_95" data-name="Path 95" d="M60.75,140.232l-.043-.059c-1.126-1.3-10.5-22.012-7.97-27.707,3.1-6.956,18.406-36.91,31.413-45.562,19.383-12.849,26.695-26.86,21.147-40.517-4.421-10.9-4.57-18.032-2.21-26.387h-1.126C99.6,8.434,99.814,15.667,104.3,26.742c5.4,13.361-1.573,26.6-20.786,39.334-13.347,8.868-28.459,38.526-31.774,46-2.72,6.109,6.759,27.037,8.1,28.693l1.658,2.582a64.834,64.834,0,0,0,4.655,6.4h1.36a65.515,65.515,0,0,1-5.08-6.917Z" transform="translate(199.679 701.021)" fill="#005e54"/>
    <path id="Path_96" data-name="Path 96" d="M58.079,104.682c6.036-10.543,9.67-16.889,33.347-34.034,25.249-18.288,33.708-30.013,31.009-59.416A38.442,38.442,0,0,1,122.966,0h-2.21a40.544,40.544,0,0,0-.489,11.41c2.614,28.5-5.632,39.886-30.18,57.662C66.028,86.493,62.308,93,56.145,103.756l-1,1.734c-6.992,12.139,4.442,31.531,4.91,32.339l5.568,7.705c1.063,1.478,2.21,2.877,3.4,4.237H71.83c-.213-.217-.4-.434-.6-.631a50.387,50.387,0,0,1-3.826-4.71l-5.483-7.607c-.553-.906-11.2-19.431-4.888-30.408Z" transform="translate(201.521 701.021)" fill="#005e54"/>
    <path id="Path_97" data-name="Path 97" d="M441.353,0a319.433,319.433,0,0,1-1.594,33.56c-6.121,63.166-40.127,77.3-62.635,86.651-2.062.871-4.038,1.679-5.866,2.487-20.255,8.948-56.577-1.381-68.862-6.121-2.253-.871-6.291-1.233-11.435-1.233-16.812,0-45.483,3.826-62.762,6.121-2.4.319-4.57.6-6.419.85-14.346,1.87-17.938-1.552-28.565-11.668-2.678-2.529-5.7-5.4-9.415-8.714-21.317-18.873-40.807-49.2-48.2-61.381C129.35,30.265,123.845,16.429,119.382,0H117.15c4.57,16.875,10.18,31.115,16.62,41.657,7.439,12.242,27.077,42.784,48.607,61.869,3.7,3.294,6.695,6.142,9.373,8.671,10.606,10.074,14.984,14.24,30.35,12.242,1.849-.234,4-.531,6.419-.85,20.786-2.763,64.037-8.523,73.113-4.995.34.128,25.908,9.862,49.287,9.862,7.63,0,15.026-1.041,21.232-3.783,1.807-.808,3.762-1.615,5.824-2.465,22.975-9.543,57.7-23.974,63.952-88.436A323.1,323.1,0,0,0,443.521,0h-2.168Z" transform="translate(273.84 701.021)" fill="#005e54"/>
    <path id="Path_98" data-name="Path 98" d="M91.88,114.443c-.638-7.258,10.967-36.65,15.834-44.8,3.741-6.244,13.284-27.2,8.374-41.124a16.931,16.931,0,0,0-9.819-10.3c-27.2-11.435-45.632-5.648-51.859,5.17-4.527,7.875-8.225,21.914-11.8,35.477-2.635,10.082-5.143,19.588-7.651,25-5.653,12.15-8.48,18.236-17.853,30.048-8.523,10.739-11.626,18.216-10.329,25a3.05,3.05,0,0,0,.085.378H7.97a4.792,4.792,0,0,1-.106-.537c-1.233-6.483,1.785-13.721,10.117-24.221,9.437-11.892,12.306-18.037,17.981-30.247,2.55-5.489,5.058-15.034,7.715-25.156,3.379-12.886,7.226-27.483,11.69-35.258,4.4-7.636,13.177-10.679,23.23-10.679,8.8,0,18.576,2.327,27.226,5.966a15.943,15.943,0,0,1,9.224,9.685c4.442,12.568-3.656,32.593-8.268,40.329-4.91,8.213-16.62,37.963-15.961,45.38.51,5.847,10.01,18,10.414,18.514l5.037,6.244h1.339l-5.526-6.861C101.911,132.222,92.368,119.992,91.88,114.443Z" transform="translate(149.315 711.492)" fill="#005e54"/>
    <path id="Path_99" data-name="Path 99" d="M85.632,93.968c.191-.85.531-2.147.935-3.719,1.658-6.5,4.463-17.385,4.251-23.634C90.563,58.6,84.612,42.6,78.342,39.452c-6.206-3.1-20.446-5.483-29.989,7.821C43.444,54.117,38.322,63.83,33.795,72.4c-4.081,7.715-7.906,14.984-10.818,18.682-1.509,1.934-3.358,3.868-5.165,5.76-5.717,5.994-11.626,12.178-9.522,20.51.234.914.446,1.764.616,2.529h2.232c-.213-.914-.468-1.913-.744-3.061-1.828-7.162,3.422-12.667,8.99-18.491,1.828-1.913,3.719-3.911,5.292-5.93,3.018-3.847,6.907-11.2,11.009-19,4.485-8.5,9.585-18.151,14.41-24.867,5.143-7.184,11.647-9.415,17.364-9.415a22.532,22.532,0,0,1,9.883,2.274c5.377,2.7,11.052,17.959,11.286,25.292.191,5.93-2.55,16.642-4.208,23.018-.4,1.615-.744,2.933-.935,3.8-.978,4.421,9.862,21.721,12.03,25.164l.935,1.19h2.678l-1.764-2.4C92.136,109.249,85.037,96.582,85.632,93.968Z" transform="translate(150.844 730.938)" fill="#005e54"/>
    <path id="Path_100" data-name="Path 100" d="M60.218,140.43c-.106-.158-11.392-16.692-8.544-24.85,2.976-8.533,14.452-32.122,28.714-50.548,14.41-18.6,19.808-29.777,13.73-46.961-.6-1.695-1.211-3.488-1.849-5.341C90.908,8.75,89.42,4.395,87.677,0H85.4c1.807,4.513,3.358,9.045,4.825,13.341q.956,2.808,1.849,5.38C97.9,35.157,92.885,45.5,78.645,63.889c-14.389,18.6-25.993,42.448-29.011,51.08-3.146,8.986,8.1,25.54,8.778,26.525l5.058,8.277h2.444l-5.653-9.3Z" transform="translate(197.236 701.021)" fill="#005e54"/>
    <path id="Path_101" data-name="Path 101" d="M59.158,55.133a7.735,7.735,0,0,0-6.716-3.571C44.833,51.881,36.481,62.89,33.909,67.1c-.893,1.445-1.7,2.912-2.572,4.463A74.565,74.565,0,0,1,17.65,90.223c-5.632,5.59-6.759,9.373-6.525,13.3h1.084c-.234-3.719.829-7.2,6.185-12.54a75.437,75.437,0,0,0,13.9-18.916c.85-1.53,1.658-3,2.529-4.4C38.287,62,46.13,52.923,52.485,52.646h.276a6.67,6.67,0,0,1,5.526,3.146c7.29,10.01,10.627,15.26,14.771,24.824C76.48,88.48,84.939,100,87.6,103.549h1.36c-1.828-2.4-11.286-15.026-14.92-23.358C69.806,70.351,66.193,64.74,59.158,55.133Z" transform="translate(154.492 747.286)" fill="#005e54"/>
  </g>
</svg>
