<?xml version="1.0" encoding="utf-8"?>
<!-- Generator: Adobe Illustrator 16.0.0, SVG Export Plug-In . SVG Version: 6.00 Build 0)  -->
<!DOCTYPE svg PUBLIC "-//W3C//DTD SVG 1.1//EN" "http://www.w3.org/Graphics/SVG/1.1/DTD/svg11.dtd">
<svg version="1.1" id="Layer_1" xmlns="http://www.w3.org/2000/svg" xmlns:xlink="http://www.w3.org/1999/xlink" x="0px" y="0px"
	 width="841.889px" height="595.281px" viewBox="0 0 841.889 595.281" enable-background="new 0 0 841.889 595.281"
	 xml:space="preserve">
<g>
	<polygon points="14.852,374.913 41.044,401.105 112.478,384.437 32.948,305.385 	"/>
	<path d="M235.343,99.178c-2.857-2.857-4.763-6.19-5.715-10L41.996,276.335c-2.381,2.381-3.81,5.238-3.81,8.571
		c0,3.334,1.429,6.191,3.81,8.572l81.435,81.435c4.762,4.763,12.857,4.763,17.62,0l187.155-187.156
		c-3.81-0.952-7.143-3.334-10-5.715L235.343,99.178z"/>
	<path d="M358.209,156.326c-3.334-0.953-6.668-2.857-9.525-5.715l-82.862-83.339c-2.381-2.382-4.286-5.239-5.238-8.097
		l-15.239,15.239c-3.811,3.811-3.811,10.478,0,14.287l82.862,83.339c3.811,3.811,10.478,3.811,14.287,0L358.209,156.326z"/>
	<path d="M272.965,50.128c0,2.857,0.952,5.238,2.857,7.144l82.862,82.863c3.81,3.81,10.478,3.81,14.287,0l37.622-37.622
		c3.81-3.81,3.81-10.477,0-14.287V87.75L329.159,6.792l-1.429-1.429c-1.905-1.905-4.763-2.857-7.144-2.857s-5.238,0.952-7.144,2.857
		l-37.621,37.621C273.917,44.889,272.965,47.27,272.965,50.128z"/>
	<path d="M31.043,404.915l-20.002-20.478l-6.19,22.383c-0.477,1.904,0.477,2.857,0.952,3.333c0,0,0.952,0.953,2.381,0.477
		L31.043,404.915z"/>
</g>
</svg>
