<?xml version="1.0" encoding="utf-8"?>
<!-- Generator: Adobe Illustrator 16.0.0, SVG Export Plug-In . SVG Version: 6.00 Build 0)  -->
<!DOCTYPE svg PUBLIC "-//W3C//DTD SVG 1.1//EN" "http://www.w3.org/Graphics/SVG/1.1/DTD/svg11.dtd">
<svg version="1.1" id="Layer_1" xmlns="http://www.w3.org/2000/svg" xmlns:xlink="http://www.w3.org/1999/xlink" x="0px" y="0px"
	 width="173.471px" height="56.639px" viewBox="0 0 173.471 56.639" enable-background="new 0 0 173.471 56.639"
	 xml:space="preserve">
<rect id="Rectangle_6" x="0" y="0" fill="#1A1818" width="51.836" height="51.836"/>
<path id="Path_2" fill="#FFFFFF" d="M9.2,24.109c-2.104-2.043-3.215-4.898-3.042-7.827V3.937h7.977v12.121
	c-0.107,1.27,0.221,2.535,0.93,3.592c1.466,1.484,3.856,1.5,5.34,0.034c0.013-0.011,0.023-0.021,0.034-0.034
	c0.709-1.057,1.037-2.322,0.932-3.592V3.937h7.842v12.345c0.171,2.929-0.939,5.784-3.042,7.827c-2.028,1.86-4.856,2.79-8.485,2.79
	S11.228,25.969,9.2,24.109z"/>
<path id="Path_3" fill="#FFFFFF" d="M32.354,18.944l-1.791,1.895v5.549h-7.842V3.937h7.842v8.147l7.774-8.147h8.684l-9.464,9.88
	l9.938,12.573h-9.229L32.354,18.944z"/>
<path id="Path_4" fill="#FFFFFF" d="M17.467,42.256H15.13v5.646H6.515V25.448h12.3c2.104-0.044,4.194,0.306,6.169,1.027
	c1.605,0.576,3.013,1.602,4.054,2.951c0.954,1.3,1.455,2.878,1.424,4.49c0.032,1.495-0.402,2.963-1.242,4.2
	c-0.907,1.262-2.146,2.25-3.577,2.854l5.366,6.928h-9.2L17.467,42.256z M20.898,31.977c-0.774-0.515-1.698-0.758-2.628-0.688h-3.14
	v5.26h3.14c0.93,0.066,1.854-0.175,2.628-0.689c1.072-0.942,1.177-2.575,0.233-3.647C21.058,32.127,20.981,32.049,20.898,31.977z"/>
<path id="Path_5" fill="#FFFFFF" d="M42.399,31.159v11.032h3.852v5.709H29.894v-5.709h3.853V31.159h-3.853v-5.712H46.25v5.712
	H42.399z"/>
<text transform="matrix(1 0 0 1 58.4705 35.6379)" fill="#1A1818" font-family="'Montserrat-Bold'" font-size="14.551">UK Research</text>
<text transform="matrix(1 0 0 1 58.4705 52.0071)" fill="#1A1818" font-family="'Montserrat-Bold'" font-size="14.551">and Innovation</text>
<rect x="0" y="0.001" fill="#333333" width="53.101" height="52.485"/>
</svg>
