<svg xmlns="http://www.w3.org/2000/svg" width="173.471" height="56.639"><path fill="#1A1818" d="M0 0h51.836v51.836H0z"/><path fill="#FFF" d="M9.2 24.109a10.078 10.078 0 0 1-3.042-7.827V3.937h7.977v12.121a5.6 5.6 0 0 0 .93 3.592 3.775 3.775 0 0 0 5.374 0 5.613 5.613 0 0 0 .932-3.592V3.937h7.842v12.345a10.089 10.089 0 0 1-3.042 7.827c-2.028 1.86-4.856 2.79-8.485 2.79s-6.458-.93-8.486-2.79z"/><path fill="#FFF" d="M32.354 18.944l-1.791 1.895v5.549h-7.842V3.937h7.842v8.147l7.774-8.147h8.684l-9.464 9.88 9.938 12.573h-9.229l-5.912-7.446z"/><path fill="#FFF" d="M17.467 42.256H15.13v5.646H6.515V25.448h12.3a16.95 16.95 0 0 1 6.169 1.027 8.938 8.938 0 0 1 4.054 2.951 7.352 7.352 0 0 1 1.424 4.49 7.202 7.202 0 0 1-1.242 4.2 8.456 8.456 0 0 1-3.577 2.854l5.366 6.928h-9.2l-4.342-5.642zm3.431-10.279a4.177 4.177 0 0 0-2.628-.688h-3.14v5.26h3.14a4.21 4.21 0 0 0 2.628-.689 2.582 2.582 0 0 0 .233-3.647 2.166 2.166 0 0 0-.233-.236z"/><path fill="#FFF" d="M42.399 31.159v11.032h3.852V47.9H29.894v-5.709h3.853V31.159h-3.853v-5.712H46.25v5.712h-3.851z"/><text transform="translate(58.47 35.638)" fill="#1A1818" font-family="'Montserrat-Bold'" font-size="14.551">UK Research</text><text transform="translate(58.47 52.007)" fill="#1A1818" font-family="'Montserrat-Bold'" font-size="14.551">and Innovation</text><path fill="#333" d="M0 .001h53.101v52.485H0z"/></svg>