<svg xmlns="http://www.w3.org/2000/svg" width="207.999" height="60.988"><g data-name="Group 636"><g data-name="Group 20"><g data-name="Group 19" fill="#fff"><path data-name="Path 1" d="M85.406 21.348c0 4.256-2.514 6.038-5.563 6.038s-5.6-1.781-5.6-6.038v-7.919h2.752v7.721c0 2.257.95 3.623 2.851 3.623s2.811-1.366 2.811-3.623v-7.721h2.752z"/><path data-name="Path 2" d="M91.621 21.446h-1.148v5.84h-2.652V13.429h2.652v5.444h1.108l3.5-5.444h3.029l-4.316 6.73 4.91 7.127h-3.049z"/><path data-name="Path 3" d="M112.743 27.286l-2.95-5.088h-1.643v5.088h-2.514V13.429h4.89a4.1 4.1 0 0 1 4.3 4.256 4.406 4.406 0 0 1-2.494 4.038l3.345 5.563zm-4.593-7.542h2.178a1.879 1.879 0 0 0 1.88-2.019 1.731 1.731 0 0 0-1.88-1.821h-2.178z"/><path data-name="Path 4" d="M125.788 23.089h-7.226a2.506 2.506 0 0 0 2.594 2.059 2.339 2.339 0 0 0 1.92-.832h2.495a4.713 4.713 0 0 1-4.494 3.069 4.967 4.967 0 0 1-5.009-5.127 4.815 4.815 0 0 1 4.93-4.969c2.534 0 5.108 1.762 4.79 5.8zm-7.067-2h4.455a2.008 2.008 0 0 0-2.1-1.643 2.449 2.449 0 0 0-2.355 1.644z"/><path data-name="Path 5" d="M131.193 19.387c-.832 0-1.188.416-1.188.832 0 .673.891.871 1.485.99 1.762.376 3.544.911 3.544 3.009 0 2.039-1.683 3.167-3.722 3.167-2.277 0-4.039-1.386-4.157-3.484h2.435a1.494 1.494 0 0 0 1.663 1.366c1.01 0 1.247-.534 1.247-.951 0-.732-.693-.95-1.366-1.108-1.168-.257-3.683-.732-3.683-2.989 0-1.94 1.861-2.93 3.782-2.93 2.217 0 3.682 1.346 3.8 3.009h-2.434a1.269 1.269 0 0 0-1.406-.911z"/><path data-name="Path 6" d="M145.98 23.089h-7.226a2.506 2.506 0 0 0 2.593 2.059 2.34 2.34 0 0 0 1.92-.832h2.495a4.713 4.713 0 0 1-4.494 3.069 4.967 4.967 0 0 1-5.009-5.127 4.815 4.815 0 0 1 4.93-4.969c2.535 0 5.108 1.762 4.791 5.8zm-7.067-2h4.455a2.008 2.008 0 0 0-2.1-1.643 2.449 2.449 0 0 0-2.355 1.644z"/><path data-name="Path 7" d="M156.967 25.386v1.9h-.591a2.218 2.218 0 0 1-2.3-1.267 3.62 3.62 0 0 1-3.127 1.366c-2.237 0-3.663-1.148-3.663-2.93 0-3.088 4.217-3.365 6.117-3.465-.04-1.148-.673-1.564-1.683-1.564-1.406 0-1.5.852-1.5.852h-2.475c.178-1.762 1.623-2.989 4.038-2.989 2.355 0 4.019 1.168 4.019 4.038v2.633c-.003 1.149.412 1.426 1.165 1.426zm-3.6-2.257v-.2c-1.8.2-3.583.416-3.583 1.445-.008 1.507 3.421 1.388 3.58-1.245z"/><path data-name="Path 8" d="M164.767 17.289v2.534a4.812 4.812 0 0 0-.871-.079 2.535 2.535 0 0 0-2.831 2.534v5.008h-2.633v-9.9h2.019l.356 1.089h.317a4.176 4.176 0 0 1 3.028-1.188z"/><path data-name="Path 9" d="M170.369 27.385a4.944 4.944 0 0 1-5.009-5.028 5.023 5.023 0 0 1 5.108-5.068 4.742 4.742 0 0 1 4.731 3.722h-2.692a2.3 2.3 0 0 0-2.1-1.327 2.658 2.658 0 0 0 0 5.306 2.284 2.284 0 0 0 2.021-1.189h2.712a4.809 4.809 0 0 1-4.771 3.584z"/><path data-name="Path 10" d="M186.265 21.921v5.365h-2.653v-4.771c0-.97.158-2.93-1.623-2.93-.871 0-2.554.455-2.554 3.049v4.652h-2.652V13.231h2.514v5.186h.336a3.842 3.842 0 0 1 2.851-1.128c2.554 0 3.781 1.9 3.781 4.632z"/><path data-name="Path 11" d="M83.722 45.664v1.9h-.593a2.217 2.217 0 0 1-2.3-1.267 3.622 3.622 0 0 1-3.128 1.366c-2.237 0-3.662-1.148-3.662-2.93 0-3.088 4.217-3.365 6.117-3.464-.04-1.148-.673-1.563-1.683-1.563-1.405 0-1.5.851-1.5.851h-2.475c.178-1.762 1.624-2.989 4.039-2.989 2.355 0 4.019 1.168 4.019 4.038v2.633c-.001 1.149.414 1.425 1.166 1.425zm-3.6-2.257v-.2c-1.8.2-3.583.416-3.583 1.445-.003 1.508 3.422 1.389 3.581-1.244z"/><path data-name="Path 12" d="M94.69 42.2v5.365h-2.633v-4.771c0-.337.237-2.831-1.664-2.93-.93-.059-2.593.455-2.593 3.049v4.652h-2.61v-9.9h2.019l.336 1.208h.337a3.789 3.789 0 0 1 3.009-1.306c2.551.001 3.799 1.901 3.799 4.633z"/><path data-name="Path 13" d="M106.032 33.509v14.056h-1.94l-.277-.95h-.3a3.25 3.25 0 0 1-2.514 1.05 5.069 5.069 0 0 1 0-10.1 3.3 3.3 0 0 1 2.553 1.069v-5.128zm-2.475 9.107c0-1.643-.891-2.613-2.177-2.613a2.621 2.621 0 0 0 0 5.227c1.287-.003 2.177-.971 2.177-2.614z"/><path data-name="Path 14" d="M116.503 47.565h-2.751V33.707h2.751z"/><path data-name="Path 15" d="M128.46 42.2v5.365h-2.633v-4.771c0-.337.238-2.831-1.663-2.93-.93-.059-2.593.455-2.593 3.049v4.652h-2.613v-9.9h2.022l.337 1.208h.337a3.791 3.791 0 0 1 3.009-1.306c2.55.001 3.797 1.901 3.797 4.633z"/><path data-name="Path 16" d="M140.1 42.2v5.365h-2.63v-4.771c0-.337.238-2.831-1.663-2.93-.931-.059-2.593.455-2.593 3.049v4.652h-2.613v-9.9h2.019l.337 1.208h.336a3.791 3.791 0 0 1 3.009-1.306c2.551.001 3.798 1.901 3.798 4.633z"/><path data-name="Path 17" d="M141.802 42.636a4.96 4.96 0 0 1 5.108-5.068 4.871 4.871 0 0 1 5.008 5.028 4.944 4.944 0 0 1-5.088 5.068 4.876 4.876 0 0 1-5.028-5.028zm7.523-.02a2.48 2.48 0 0 0-2.415-2.752 2.763 2.763 0 0 0 0 5.5 2.481 2.481 0 0 0 2.415-2.748z"/><path data-name="Path 18" d="M162.726 37.666l-3.207 9.9h-3.841l-3.207-9.9h2.633l2.3 7.286h.4l2.3-7.286z"/><path data-name="Path 19" d="M173.282 45.664v1.9h-.6a2.217 2.217 0 0 1-2.3-1.267 3.622 3.622 0 0 1-3.128 1.366c-2.237 0-3.663-1.148-3.663-2.93 0-3.088 4.217-3.365 6.117-3.464-.04-1.148-.673-1.563-1.682-1.563-1.405 0-1.5.851-1.5.851h-2.475c.178-1.762 1.624-2.989 4.038-2.989 2.355 0 4.019 1.168 4.019 4.038v2.633c.002 1.149.417 1.425 1.174 1.425zm-3.6-2.257v-.2c-1.8.2-3.583.416-3.583 1.445-.007 1.508 3.417 1.389 3.576-1.244z"/><path data-name="Path 20" d="M181.235 46.832a3.475 3.475 0 0 1-2.356.832 3.34 3.34 0 0 1-3.544-3.287v-4.593h-1.974v-1.94h.99a1.081 1.081 0 0 0 1.128-1.167v-1.98h2.4v2.969h2.482v2.118h-2.494v4.435a1.211 1.211 0 0 0 1.267 1.188 2.531 2.531 0 0 0 1.148-.337z"/><path data-name="Path 21" d="M181.889 34.896a1.685 1.685 0 0 1 1.7-1.683 1.664 1.664 0 0 1 1.663 1.683 1.686 1.686 0 0 1-1.663 1.663 1.707 1.707 0 0 1-1.7-1.663zm2.97 12.67h-2.534v-9.9h2.534z"/><path data-name="Path 22" d="M186.698 42.636a4.96 4.96 0 0 1 5.108-5.068 4.871 4.871 0 0 1 5.008 5.028 4.945 4.945 0 0 1-5.088 5.068 4.876 4.876 0 0 1-5.028-5.028zm7.523-.02a2.48 2.48 0 0 0-2.415-2.752 2.763 2.763 0 0 0 0 5.5 2.48 2.48 0 0 0 2.416-2.748z"/><path data-name="Path 23" d="M208 42.2v5.365h-2.633v-4.771c0-.337.237-2.831-1.663-2.93-.931-.059-2.593.455-2.593 3.049v4.652h-2.613v-9.9h2.019l.337 1.208h.336a3.791 3.791 0 0 1 3.009-1.306c2.554.001 3.801 1.901 3.801 4.633z"/></g></g><g data-name="Group 21"><path data-name="Rectangle 34" fill="#2e2d62" d="M0 0h60.988v60.988H0z"/><path data-name="Path 24" d="M54.276 6.712h-7.11l-9.56 10.18V6.712H23.791v13.514c0 2.893-2.143 4.573-4.984 4.573s-4.984-1.679-4.984-4.573V6.712H6.712V20.33c0 6.1 4.924 9.6 10.478 10.165H6.712v23.781h7.111v-8.814h3.106l6.571 8.814h30.776v-4.8h-8.335V35.298h8.335v-6.275L44.085 18.587l10.193-10.4zM30.494 23.219v11.033c-1.514-2.557-5-3.744-10.165-3.757 4.613-.468 8.876-2.957 10.165-7.276zM13.823 35.298h6.506c2.675 0 3.759 1.037 3.759 2.664s-1.084 2.7-3.759 2.7h-6.506zM38.83 49.473h-8.336v3.331l-5.867-7.689c4.467-.822 6.774-3.132 6.774-7.155a7.933 7.933 0 0 0-.42-2.664h7.849zm8.336-18.979h-9.561V20.286z" fill="#fff"/></g></g></svg>