<svg xmlns="http://www.w3.org/2000/svg" width="173.471" height="56.639"><g data-name="Group 20"><g data-name="Group 19"><path data-name="Rectangle 6" fill="#1a1818" d="M0 0h51.836v51.836H0z"/><path data-name="Path 2" d="M9.2 24.109a10.09 10.09 0 0 1-3.042-7.827V3.937h7.977v12.121a5.6 5.6 0 0 0 .93 3.592 3.776 3.776 0 0 0 5.374 0 5.6 5.6 0 0 0 .93-3.592V3.937h7.842v12.345a10.09 10.09 0 0 1-3.042 7.827q-3.042 2.79-8.485 2.79T9.2 24.109z" fill="#fff"/><path data-name="Path 3" d="M32.354 18.944l-1.791 1.893v5.549h-7.842V3.937h7.842v8.147l7.774-8.147h8.684l-9.464 9.88 9.937 12.573h-9.228z" fill="#fff"/><path data-name="Path 4" d="M17.467 42.256H15.13v5.646H6.515V25.449h12.3a16.92 16.92 0 0 1 6.169 1.027 8.916 8.916 0 0 1 4.052 2.951 7.346 7.346 0 0 1 1.424 4.49 7.2 7.2 0 0 1-1.242 4.2 8.455 8.455 0 0 1-3.577 2.855l5.366 6.928h-9.2zm3.431-10.279a4.2 4.2 0 0 0-2.628-.69h-3.14v5.26h3.14a4.2 4.2 0 0 0 2.628-.689 2.585 2.585 0 0 0 0-3.881z" fill="#fff"/><path data-name="Path 5" d="M42.399 31.159v11.034h3.85v5.709H29.893v-5.709h3.851V31.159h-3.851v-5.71h16.356v5.71z" fill="#fff"/></g><text data-name="UK Research and Innovation" transform="translate(61.471 35.638)" fill="#1a1818" font-size="14.551" font-family="Montserrat-Bold, Montserrat" font-weight="700" letter-spacing="-.02em"><tspan x="0" y="0">UK Research</tspan><tspan x="0" y="16.369">and Innovation</tspan></text></g></svg>